<svg 
 width="20.000000pt" height="20.000000pt" viewBox="0 0 100.000000 100.000000"
 preserveAspectRatio="xMidYMid meet">

<g transform="translate(0.000000,100.000000) scale(0.100000,-0.100000)"
fill="currentColor" stroke="none">
<path d="M632 984 c-31 -14 -33 -17 -30 -62 l3 -47 -46 3 c-43 2 -46 1 -63
-35 l-18 -38 31 -26 c39 -32 39 -49 1 -77 l-30 -22 17 -41 16 -41 -29 -24
c-51 -41 -78 -30 -91 36 l-9 45 -54 0 -55 0 -9 -48 c-12 -62 -39 -71 -91 -31
l-36 27 -40 -39 -39 -39 26 -38 c37 -55 28 -81 -33 -93 l-48 -9 0 -55 0 -55
48 -9 c62 -11 71 -39 31 -91 l-27 -36 39 -40 40 -40 39 26 c54 38 79 29 91
-32 l9 -48 55 0 55 0 9 48 c11 61 37 70 93 33 l38 -26 39 39 39 40 -27 36
c-40 52 -31 80 31 91 l48 9 0 55 0 55 -48 9 c-59 12 -70 37 -36 89 22 33 25
34 49 22 56 -28 68 -28 85 4 20 39 43 39 75 1 l25 -31 38 16 c38 16 38 17 35
63 l-3 47 47 -2 c46 -3 48 -2 63 33 20 48 20 50 -15 71 -38 22 -38 42 1 74
l31 25 -16 38 c-15 37 -17 38 -63 34 l-48 -3 2 48 c3 46 2 49 -32 63 -47 19
-52 18 -70 -16 -9 -18 -23 -30 -35 -30 -10 0 -27 13 -37 30 -19 34 -24 34 -71
14z m52 -59 c24 -36 87 -36 110 1 23 34 42 26 38 -17 -4 -50 33 -84 82 -75 44
8 50 -13 11 -38 -20 -13 -25 -25 -25 -55 0 -30 5 -42 25 -55 35 -23 31 -38
-10 -35 -49 5 -89 -33 -80 -78 10 -52 -30 -52 -48 1 -2 5 -21 9 -43 8 -28 -2
-45 -10 -60 -29 -26 -33 -46 -24 -34 17 7 26 5 34 -18 56 -21 20 -34 24 -59
20 -43 -6 -53 12 -20 36 38 27 38 90 2 114 -34 22 -26 39 16 36 47 -4 84 34
76 76 -10 48 11 57 37 17z m-330 -327 c3 -13 7 -32 8 -42 2 -12 19 -26 44 -37
41 -17 42 -17 77 6 33 23 36 23 50 7 14 -15 13 -20 -8 -50 -23 -34 -23 -35 -6
-75 11 -26 25 -43 37 -45 53 -8 64 -13 64 -32 0 -19 -11 -24 -64 -32 -12 -2
-26 -19 -37 -45 -17 -40 -17 -41 6 -75 21 -30 22 -35 8 -50 -14 -16 -17 -16
-50 6 -33 23 -36 23 -74 8 -21 -8 -40 -22 -43 -31 -2 -9 -7 -29 -10 -44 -5
-22 -12 -28 -29 -25 -17 2 -23 12 -28 41 -7 44 -4 41 -51 60 -34 14 -38 14
-71 -8 -33 -23 -36 -23 -50 -7 -14 15 -13 20 8 50 23 34 23 35 6 75 -11 26
-25 43 -37 45 -58 9 -65 13 -62 35 2 17 12 23 41 28 44 7 41 4 60 51 15 34 14
38 -10 73 -22 33 -24 39 -10 52 13 14 19 12 52 -10 37 -25 37 -25 79 -8 25 11
42 25 44 37 8 53 13 64 32 64 12 0 21 -8 24 -22z m252 -3 c4 -8 3 -27 0 -41
l-7 -27 -35 34 c-30 29 -32 34 -17 41 30 11 53 9 59 -7z"/>
<path d="M669 811 c-62 -62 -16 -171 72 -171 28 0 77 27 89 49 5 11 10 36 10
56 0 86 -109 128 -171 66z m113 -28 c36 -32 11 -103 -36 -103 -34 0 -66 28
-66 57 0 55 62 83 102 46z"/>
<path d="M268 434 c-77 -41 -75 -169 2 -209 84 -43 180 13 180 105 0 92 -99
149 -182 104z m119 -46 c51 -48 15 -138 -56 -138 -47 0 -81 32 -81 79 0 72 84
109 137 59z"/>
</g>
</svg>
