<?xml version="1.0" standalone="no"?>
<!DOCTYPE svg PUBLIC "-//W3C//DTD SVG 20010904//EN"
 "http://www.w3.org/TR/2001/REC-SVG-20010904/DTD/svg10.dtd">
<svg version="1.0" xmlns="http://www.w3.org/2000/svg"
 width="708.000000pt" height="801.000000pt" viewBox="0 0 708.000000 801.000000"
 preserveAspectRatio="xMidYMid meet">

<g transform="translate(0.000000,801.000000) scale(0.100000,-0.100000)"
fill="#000000" stroke="none">
<path d="M3350 7483 c-209 -10 -539 -76 -769 -154 -449 -152 -895 -452 -1214
-818 -276 -315 -453 -619 -598 -1023 -72 -202 -135 -506 -147 -718 -15 -249
-4 -662 18 -684 5 -5 10 -25 10 -44 0 -18 5 -53 11 -78 9 -33 9 -48 -1 -59 -9
-11 -7 -19 14 -42 18 -19 26 -38 24 -58 -1 -17 2 -37 6 -44 4 -7 12 -44 17
-84 5 -39 12 -73 16 -76 16 -12 35 -60 28 -70 -4 -7 -2 -17 4 -24 5 -7 22 -46
37 -87 14 -41 45 -111 68 -155 22 -44 43 -88 46 -99 5 -16 10 -14 43 19 20 20
37 41 37 46 0 5 6 9 13 9 6 0 84 71 173 158 88 86 169 162 180 168 28 16 28
48 1 96 -14 24 -34 75 -46 113 -12 39 -26 77 -30 85 -4 8 -14 40 -21 70 -7 30
-17 66 -22 81 -5 14 -13 56 -18 95 -5 38 -16 103 -25 144 -14 63 -16 114 -11
315 3 132 8 251 11 265 3 14 12 75 20 135 8 61 24 135 34 166 10 30 25 82 32
115 7 32 16 61 20 64 4 3 14 28 21 55 7 28 16 52 19 55 3 3 9 15 13 28 4 12
12 22 17 22 5 0 9 13 9 29 0 16 4 31 8 33 5 2 27 37 48 78 96 180 181 315 241
380 13 14 23 28 23 32 0 7 16 25 145 158 197 204 487 403 748 514 20 9 53 23
72 31 56 25 211 74 299 95 358 85 748 89 1084 10 99 -23 119 -29 152 -40 19
-7 50 -19 68 -26 18 -8 39 -14 46 -14 19 0 191 -71 260 -108 5 -3 6 0 3 5 -7
12 -236 125 -277 138 -14 4 -29 11 -35 15 -5 5 -27 11 -48 15 -37 7 -61 25
-33 25 37 0 360 -115 460 -164 252 -125 562 -366 737 -574 366 -435 555 -946
553 -1497 -1 -311 -52 -579 -162 -851 -116 -287 -223 -475 -377 -664 -34 -41
-82 -104 -108 -139 l-47 -63 0 -347 c0 -327 -1 -348 -20 -384 -11 -20 -20 -39
-20 -42 0 -20 48 11 141 90 20 16 45 37 55 45 87 68 143 118 234 210 123 124
166 174 277 324 46 61 86 116 91 121 4 6 26 39 48 75 226 363 383 831 424
1265 22 243 8 614 -34 835 -114 613 -388 1134 -825 1571 -77 78 -145 138 -265
238 -11 9 66 -69 170 -174 356 -357 558 -656 723 -1073 196 -494 251 -1074
156 -1618 -36 -202 -71 -323 -167 -567 -20 -51 -19 -20 1 34 66 180 127 462
152 707 17 167 6 582 -19 747 -61 391 -174 717 -363 1050 -143 252 -274 418
-513 653 -421 413 -926 680 -1506 796 -147 29 -450 48 -640 39z"/>
<path d="M4802 6159 c-5 -13 -8 -28 -6 -34 14 -47 152 -482 219 -690 151 -468
166 -523 147 -511 -36 22 -95 185 -337 936 -78 244 -84 254 -132 247 -19 -3
-188 -56 -376 -117 -188 -62 -432 -141 -542 -176 -110 -36 -217 -76 -237 -89
-22 -15 -52 -25 -72 -25 -19 0 -37 -4 -40 -9 -9 -14 325 -136 353 -128 28 7
51 -11 51 -40 0 -29 -109 -144 -335 -354 -66 -61 -280 -270 -475 -463 -195
-194 -535 -527 -755 -741 -220 -214 -493 -481 -606 -594 -114 -113 -281 -280
-372 -369 l-166 -164 24 -24 c14 -14 25 -30 25 -35 0 -6 16 -27 35 -46 19 -19
35 -39 35 -45 0 -14 132 -148 146 -148 7 0 16 -9 19 -20 3 -11 14 -20 24 -20
13 0 20 -10 25 -30 5 -27 9 -30 46 -30 33 0 40 3 40 20 0 13 7 20 19 20 11 0
23 9 26 20 3 11 13 20 21 20 8 0 14 7 14 16 0 18 24 44 41 44 13 0 49 38 49
52 0 4 4 8 10 8 14 0 110 94 110 108 0 7 4 12 10 12 15 0 50 33 50 47 0 7 7
13 15 13 8 0 15 5 15 10 0 6 5 10 10 10 9 0 95 80 304 285 39 39 85 82 101 97
17 14 40 37 52 50 34 37 70 71 156 148 28 25 150 143 271 264 122 120 247 241
279 269 31 28 57 56 57 64 0 7 4 12 9 11 9 -3 356 331 797 765 116 114 220
214 231 222 16 11 28 13 46 6 20 -8 26 -19 31 -58 8 -66 8 37 1 -1693 -5
-1344 -8 -1556 -20 -1570 -21 -23 -19 -30 8 -30 24 0 92 22 103 33 4 4 20 7
36 7 15 0 36 4 46 9 9 5 42 17 73 26 31 9 65 23 75 30 11 8 34 15 52 15 17 0
32 4 32 9 0 5 13 11 29 14 16 3 36 13 44 22 9 9 19 16 22 15 22 -1 33 3 55 20
l25 19 1 388 c1 213 2 911 3 1551 1 1062 2 1162 17 1162 17 0 169 -83 239
-130 63 -42 156 -93 161 -88 2 3 -11 52 -30 109 -19 57 -73 226 -121 374 -47
149 -92 288 -100 310 -21 63 -152 473 -171 540 -22 74 -31 85 -42 54z m294
-1240 c23 -26 14 -31 -27 -18 -36 12 -62 36 -53 50 7 12 59 -9 80 -32z m-306
-667 c-6 -11 -9 81 -10 284 0 165 3 304 8 308 11 12 14 -572 2 -592z"/>
<path d="M3772 3983 c-12 -24 -86 -107 -164 -185 -78 -79 -198 -201 -266 -271
l-125 -128 6 -877 c6 -802 5 -878 -10 -894 -9 -10 -14 -21 -10 -24 20 -20 278
-31 469 -19 l117 8 6 41 c3 22 4 570 3 1216 l-3 1175 -23 -42z"/>
<path d="M2743 2988 c-6 -7 -14 -24 -18 -38 -6 -21 -550 -572 -778 -788 -63
-60 -74 -82 -41 -82 8 0 28 -13 46 -30 17 -17 37 -30 44 -30 8 0 14 -4 14 -10
0 -5 5 -10 10 -10 6 0 20 -9 32 -20 12 -11 32 -20 45 -20 13 0 33 -9 45 -20
12 -11 30 -20 40 -20 10 0 18 -4 18 -10 0 -5 7 -10 15 -10 8 0 15 -3 15 -8 0
-4 15 -13 33 -20 17 -7 40 -18 49 -23 10 -5 27 -9 38 -9 11 0 20 -4 20 -10 0
-5 7 -10 15 -10 8 0 15 -4 15 -10 0 -5 16 -10 35 -10 19 0 35 -4 35 -8 0 -10
59 -32 86 -32 24 0 74 -22 74 -32 0 -5 9 -8 19 -8 11 0 23 -4 26 -10 7 -12 55
-13 72 -2 9 5 12 167 14 645 1 350 0 639 -3 642 -3 3 -10 0 -15 -7z"/>
<path d="M176 929 c-3 -17 -6 -164 -6 -325 0 -213 -3 -300 -12 -314 -7 -10
-10 -22 -6 -25 10 -10 358 -6 377 5 10 5 21 6 25 3 18 -18 121 57 146 107 41
80 17 163 -61 216 l-46 31 34 34 c52 50 66 84 61 144 -5 64 -29 98 -92 130
-48 24 -57 25 -232 25 l-181 0 -7 -31z m271 -78 c46 -1 57 -5 88 -36 43 -44
47 -84 10 -120 -23 -24 -30 -25 -143 -25 -84 0 -122 4 -129 13 -4 6 -7 47 -5
89 4 85 3 84 82 81 25 0 68 -1 97 -2z m88 -307 c36 -17 75 -74 75 -109 0 -15
-12 -37 -26 -52 -25 -25 -29 -25 -101 -19 -42 3 -107 6 -145 6 l-68 0 0 95 0
94 78 4 c96 4 148 -1 187 -19z"/>
<path d="M1090 923 c-38 -16 -149 -94 -175 -124 -44 -52 -73 -126 -82 -212 -9
-73 -8 -82 19 -144 42 -100 82 -136 205 -183 19 -7 63 -11 105 -9 129 7 231
76 294 197 25 50 29 68 29 142 0 72 -4 93 -27 140 -15 30 -43 72 -62 92 -38
40 -123 88 -156 88 -11 0 -20 5 -20 10 0 11 -104 13 -130 3z m147 -134 c47
-26 98 -77 108 -109 4 -14 14 -34 21 -45 8 -11 14 -38 14 -60 0 -83 -35 -153
-98 -194 -32 -21 -44 -23 -116 -18 -91 6 -132 23 -172 70 -45 54 -57 93 -52
178 4 68 8 81 37 118 18 23 50 50 70 61 50 27 139 26 188 -1z"/>
<path d="M1860 916 c-93 -26 -208 -140 -243 -241 -8 -22 -17 -69 -21 -106 -18
-169 114 -307 303 -317 110 -6 187 23 260 99 163 167 120 448 -84 544 -76 35
-140 42 -215 21z m135 -122 c114 -47 185 -204 140 -310 -32 -78 -73 -112 -148
-124 -75 -12 -139 5 -192 52 -84 74 -107 176 -61 273 51 108 157 153 261 109z"/>
<path d="M2542 923 c-13 -2 -49 -30 -82 -62 -45 -45 -60 -66 -65 -97 -3 -21
-10 -48 -14 -59 -5 -12 -2 -33 5 -52 20 -47 91 -84 253 -134 51 -15 101 -61
101 -93 0 -12 -11 -33 -24 -45 -22 -21 -30 -22 -98 -16 -53 5 -94 16 -144 40
l-69 33 -3 -24 c-2 -13 -14 -32 -28 -43 l-25 -19 22 -21 c69 -64 233 -99 330
-69 46 13 113 68 134 109 19 37 19 122 0 160 -22 41 -85 84 -153 104 -103 30
-176 57 -189 71 -31 30 -1 87 52 100 51 13 132 -1 176 -30 l42 -28 28 28 c44
45 42 73 -7 101 -62 34 -185 58 -242 46z"/>
<path d="M3680 912 c-87 -44 -131 -93 -148 -167 -5 -22 -13 -47 -17 -57 -10
-26 56 -92 118 -116 28 -12 84 -30 123 -41 85 -25 149 -78 139 -114 -13 -45
-40 -56 -118 -50 -74 6 -137 28 -187 63 -36 25 -40 25 -40 -4 0 -12 -11 -35
-25 -50 -14 -15 -25 -31 -25 -35 0 -12 92 -60 147 -76 58 -18 161 -19 214 -4
82 25 148 110 149 191 0 73 -35 127 -105 158 -39 18 -54 23 -168 55 -72 21
-99 43 -99 79 0 47 30 68 101 67 49 0 75 -7 126 -32 36 -18 67 -30 69 -28 12
14 56 83 56 89 0 13 -67 49 -132 70 -75 24 -132 25 -178 2z"/>
<path d="M3013 913 c-58 -3 -73 -7 -73 -19 0 -9 -8 -29 -17 -45 -24 -41 -9
-49 93 -49 120 0 116 12 111 -266 -2 -126 -6 -240 -8 -254 -4 -24 -2 -25 51
-25 l55 0 6 270 c3 149 6 271 7 272 1 1 46 4 100 5 l97 3 3 58 3 57 -178 -2
c-98 -1 -211 -4 -250 -5z"/>
<path d="M4156 889 c-3 -17 -6 -159 -6 -314 0 -209 -3 -284 -12 -287 -6 -2 -9
-12 -5 -21 6 -15 30 -17 235 -17 l230 0 6 30 c3 17 3 44 0 60 l-6 30 -169 0
-169 0 0 80 0 80 128 0 c172 0 174 1 170 59 l-3 46 -110 6 c-60 4 -127 7 -147
8 l-38 1 0 75 0 75 165 0 165 0 0 60 0 60 -214 0 -213 0 -7 -31z"/>
<path d="M4756 889 c-3 -17 -6 -158 -6 -312 0 -246 -2 -283 -16 -299 -14 -15
-14 -18 -3 -23 8 -3 104 -4 214 -3 l200 3 0 55 0 55 -140 3 c-94 2 -142 7
-147 15 -4 7 -8 130 -8 275 l0 262 -44 0 c-41 0 -44 -2 -50 -31z"/>
<path d="M5286 888 c-3 -17 -6 -157 -6 -311 0 -246 -2 -283 -16 -299 -14 -15
-14 -18 -3 -23 8 -3 107 -4 219 -3 l205 3 0 55 c0 50 -2 55 -23 58 -13 2 -29
-1 -36 -7 -8 -7 -45 -8 -117 -1 -57 5 -110 9 -116 10 -10 0 -13 62 -13 275 l0
274 -44 -1 c-41 0 -44 -3 -50 -30z"/>
<path d="M5826 890 c-3 -18 -6 -160 -6 -315 0 -239 -2 -284 -15 -295 -8 -7
-15 -16 -15 -21 0 -5 106 -9 235 -9 l235 0 0 60 c0 54 -2 60 -20 60 -11 0 -23
-7 -26 -15 -5 -13 -24 -14 -123 -9 -64 4 -120 10 -125 15 -6 5 -18 9 -28 9
-16 0 -18 10 -18 80 l0 80 150 0 150 0 0 55 c0 49 -2 55 -20 55 -11 0 -23 -7
-27 -15 -4 -13 -17 -15 -67 -10 -103 11 -130 15 -158 28 -27 11 -28 15 -28 80
0 50 4 69 15 73 8 3 83 7 167 7 l153 2 3 58 c3 48 0 57 -14 57 -9 0 -22 -7
-28 -15 -10 -13 -31 -14 -166 -5 -85 5 -169 12 -186 16 -29 5 -32 3 -38 -26z"/>
<path d="M6416 890 c-3 -18 -6 -157 -6 -310 0 -264 -1 -278 -20 -295 -33 -30
-24 -36 48 -33 l67 3 3 106 c2 101 4 107 25 113 40 10 84 6 97 -9 7 -8 19 -14
28 -13 20 4 119 -142 118 -173 -1 -23 2 -24 72 -27 54 -2 72 0 72 10 0 13 -21
46 -98 159 -18 26 -32 56 -32 66 0 11 18 34 39 51 87 70 108 202 46 290 -17
23 -36 42 -42 42 -7 0 -13 4 -13 9 0 15 -34 18 -45 4 -8 -10 -24 -11 -70 -3
-33 5 -85 10 -115 10 -50 0 -86 7 -146 25 -18 6 -22 1 -28 -25z m318 -110 c6
-6 20 -10 33 -10 40 0 57 -65 29 -118 -29 -57 -50 -66 -148 -68 -131 -3 -138
3 -138 117 l0 88 33 4 c49 7 180 -2 191 -13z"/>
</g>
</svg>
